<mxfile host="app.diagrams.net" modified="2021-10-22T11:50:39.555Z" agent="5.0 (Windows NT 10.0; Win64; x64) AppleWebKit/537.36 (KHTML, like Gecko) Chrome/94.0.4606.71 Safari/537.36" etag="8gNTLTVFAsEr9wi_aOYy" version="15.5.8" type="github">
  <diagram id="8KyumhnjD8qJlOuxR-5a" name="Page-1">
    <mxGraphModel dx="1065" dy="456" grid="1" gridSize="10" guides="1" tooltips="1" connect="1" arrows="1" fold="1" page="1" pageScale="1" pageWidth="827" pageHeight="1169" math="0" shadow="0">
      <root>
        <mxCell id="0" />
        <mxCell id="1" parent="0" />
        <mxCell id="Jb96kdzBdP_yNb_UIK-H-1" value="" style="rounded=0;whiteSpace=wrap;html=1;" vertex="1" parent="1">
          <mxGeometry x="80" y="90" width="150" height="180" as="geometry" />
        </mxCell>
        <mxCell id="Jb96kdzBdP_yNb_UIK-H-2" value="" style="rounded=0;whiteSpace=wrap;html=1;" vertex="1" parent="1">
          <mxGeometry x="80" y="840" width="150" height="180" as="geometry" />
        </mxCell>
        <mxCell id="Jb96kdzBdP_yNb_UIK-H-3" value="" style="rounded=0;whiteSpace=wrap;html=1;" vertex="1" parent="1">
          <mxGeometry x="80" y="470" width="150" height="180" as="geometry" />
        </mxCell>
        <mxCell id="Jb96kdzBdP_yNb_UIK-H-4" value="" style="rounded=0;whiteSpace=wrap;html=1;" vertex="1" parent="1">
          <mxGeometry x="360" y="840" width="220" height="270" as="geometry" />
        </mxCell>
        <mxCell id="Jb96kdzBdP_yNb_UIK-H-5" value="" style="rounded=0;whiteSpace=wrap;html=1;" vertex="1" parent="1">
          <mxGeometry x="360" y="460" width="220" height="240" as="geometry" />
        </mxCell>
        <mxCell id="Jb96kdzBdP_yNb_UIK-H-6" value="" style="rounded=0;whiteSpace=wrap;html=1;" vertex="1" parent="1">
          <mxGeometry x="360" y="70" width="220" height="240" as="geometry" />
        </mxCell>
        <mxCell id="Jb96kdzBdP_yNb_UIK-H-7" value="" style="rounded=0;whiteSpace=wrap;html=1;" vertex="1" parent="1">
          <mxGeometry x="90" y="130" width="120" height="30" as="geometry" />
        </mxCell>
        <mxCell id="Jb96kdzBdP_yNb_UIK-H-8" value="Dev Cluster" style="text;html=1;resizable=0;autosize=1;align=center;verticalAlign=middle;points=[];fillColor=none;strokeColor=none;rounded=0;" vertex="1" parent="1">
          <mxGeometry x="110" y="100" width="80" height="20" as="geometry" />
        </mxCell>
        <mxCell id="Jb96kdzBdP_yNb_UIK-H-9" value="Telia-Fi-Online" style="text;html=1;resizable=0;autosize=1;align=center;verticalAlign=middle;points=[];fillColor=none;strokeColor=none;rounded=0;" vertex="1" parent="1">
          <mxGeometry x="105" y="135" width="90" height="20" as="geometry" />
        </mxCell>
        <mxCell id="Jb96kdzBdP_yNb_UIK-H-10" value="Staging Cluster" style="text;html=1;resizable=0;autosize=1;align=center;verticalAlign=middle;points=[];fillColor=none;strokeColor=none;rounded=0;" vertex="1" parent="1">
          <mxGeometry x="100" y="470" width="100" height="20" as="geometry" />
        </mxCell>
        <mxCell id="Jb96kdzBdP_yNb_UIK-H-11" value="" style="rounded=1;whiteSpace=wrap;html=1;" vertex="1" parent="1">
          <mxGeometry x="90" y="525" width="120" height="30" as="geometry" />
        </mxCell>
        <mxCell id="Jb96kdzBdP_yNb_UIK-H-12" value="" style="rounded=1;whiteSpace=wrap;html=1;" vertex="1" parent="1">
          <mxGeometry x="90" y="590" width="120" height="30" as="geometry" />
        </mxCell>
        <mxCell id="Jb96kdzBdP_yNb_UIK-H-14" value="telia-online-stage" style="text;html=1;resizable=0;autosize=1;align=center;verticalAlign=middle;points=[];fillColor=none;strokeColor=none;rounded=0;" vertex="1" parent="1">
          <mxGeometry x="90" y="530" width="110" height="20" as="geometry" />
        </mxCell>
        <mxCell id="Jb96kdzBdP_yNb_UIK-H-15" value="telia-molnia-stag" style="text;html=1;resizable=0;autosize=1;align=center;verticalAlign=middle;points=[];fillColor=none;strokeColor=none;rounded=0;" vertex="1" parent="1">
          <mxGeometry x="90" y="600" width="100" height="20" as="geometry" />
        </mxCell>
        <mxCell id="Jb96kdzBdP_yNb_UIK-H-16" value="Prod Cluster" style="text;html=1;resizable=0;autosize=1;align=center;verticalAlign=middle;points=[];fillColor=none;strokeColor=none;rounded=0;" vertex="1" parent="1">
          <mxGeometry x="100" y="840" width="80" height="20" as="geometry" />
        </mxCell>
        <mxCell id="Jb96kdzBdP_yNb_UIK-H-17" value="" style="rounded=1;whiteSpace=wrap;html=1;" vertex="1" parent="1">
          <mxGeometry x="95" y="880" width="120" height="30" as="geometry" />
        </mxCell>
        <mxCell id="Jb96kdzBdP_yNb_UIK-H-18" value="" style="rounded=1;whiteSpace=wrap;html=1;" vertex="1" parent="1">
          <mxGeometry x="95" y="950" width="120" height="30" as="geometry" />
        </mxCell>
        <mxCell id="Jb96kdzBdP_yNb_UIK-H-19" value="telia-fi-channels" style="text;html=1;resizable=0;autosize=1;align=center;verticalAlign=middle;points=[];fillColor=none;strokeColor=none;rounded=0;" vertex="1" parent="1">
          <mxGeometry x="100" y="885" width="100" height="20" as="geometry" />
        </mxCell>
        <mxCell id="Jb96kdzBdP_yNb_UIK-H-20" value="Telia-molnia-eks" style="text;html=1;resizable=0;autosize=1;align=center;verticalAlign=middle;points=[];fillColor=none;strokeColor=none;rounded=0;" vertex="1" parent="1">
          <mxGeometry x="105" y="955" width="100" height="20" as="geometry" />
        </mxCell>
        <mxCell id="Jb96kdzBdP_yNb_UIK-H-21" value="Dev AWS" style="text;html=1;resizable=0;autosize=1;align=center;verticalAlign=middle;points=[];fillColor=none;strokeColor=none;rounded=0;" vertex="1" parent="1">
          <mxGeometry x="415" y="50" width="70" height="20" as="geometry" />
        </mxCell>
      </root>
    </mxGraphModel>
  </diagram>
</mxfile>
